<svg xmlns="http://www.w3.org/2000/svg" viewBox="0 0 960 600" width="960" height="600">
  <rect width="960" height="600" fill="#141414"/>
  <path d="M4.8,41.9L7.3,165.3L9.6,220.6L10.4,224.8L20.5,254.9L50.5,315.8L70.8,355.9L73.7,358.9L128.1,403.0L436.1,552.5L447.1,556.4L714.7,574.1L724.1,572.4L727.2,568.1L944.1,119.9L930.9,67.7L928.2,64.7L923.7,61.0L907.5,58.6L488.9,14.5L485.6,14.2L36.5,23.1L6.6,37.4Z" fill="none" stroke="#333" stroke-width="2" opacity="0.5"/>
  <g id="states">
    <path id="AL" d="M594.4,417.8L595.6,453.1L599.8,454.2L607.6,455.8L609.9,455.1L650.8,438.4L652.7,409.3L641.0,346.5L612.5,346.1L598.7,346.3Z" fill="#68D391" fill-opacity="0.15" stroke="#16A34A" stroke-width="1" stroke-opacity="0.6"/>
    <text x="623.3" y="416.2" fill="#68D391" font-size="9" font-family="Inter,sans-serif" font-weight="600" text-anchor="middle" dominant-baseline="central" opacity="0.8">AL</text>
    <path id="AR" d="M494.4,311.5L496.5,377.6L503.7,391.9L550.5,392.3L551.8,389.1L573.3,327.4L573.9,323.1L567.0,311.6L496.7,311.5Z" fill="#68D391" fill-opacity="0.15" stroke="#16A34A" stroke-width="1" stroke-opacity="0.6"/>
    <text x="544.8" y="352.6" fill="#68D391" font-size="9" font-family="Inter,sans-serif" font-weight="600" text-anchor="middle" dominant-baseline="central" opacity="0.8">AR</text>
    <path id="AZ" d="M165.7,404.0L226.6,430.8L259.6,430.8L259.6,300.0L235.9,299.9L178.2,300.0L167.0,320.7Z" fill="#FB923C" fill-opacity="0.15" stroke="#EA580C" stroke-width="1" stroke-opacity="0.6"/>
    <text x="184.4" y="359.2" fill="#FB923C" font-size="9" font-family="Inter,sans-serif" font-weight="600" text-anchor="middle" dominant-baseline="central" opacity="0.8">AZ</text>
    <path id="CA" d="M9.6,220.6L10.4,224.8L20.5,254.9L50.5,315.8L70.8,355.9L73.7,358.9L128.1,403.0L167.2,398.8L170.4,397.9L171.3,395.9L176.8,362.2L168.7,346.1L81.3,184.7L42.6,184.3L12.8,184.6L12.1,189.7Z" fill="#E53E3E" fill-opacity="0.15" stroke="#B91C1C" stroke-width="1" stroke-opacity="0.6"/>
    <text x="80.7" y="309.4" fill="#E53E3E" font-size="9" font-family="Inter,sans-serif" font-weight="600" text-anchor="middle" dominant-baseline="central" opacity="0.8">CA</text>
    <path id="CO" d="M259.4,270.5L259.6,300.0L295.0,300.1L373.5,300.1L373.4,207.6L277.9,207.6L259.6,207.7Z" fill="#E53E3E" fill-opacity="0.15" stroke="#B91C1C" stroke-width="1" stroke-opacity="0.6"/>
    <text x="306.5" y="254.5" fill="#E53E3E" font-size="9" font-family="Inter,sans-serif" font-weight="600" text-anchor="middle" dominant-baseline="central" opacity="0.8">CO</text>
    <path id="CT" d="M834.3,205.3L835.4,208.0L864.7,200.3L865.6,198.1L865.6,184.1L838.2,183.5Z" fill="#4A9EE5" fill-opacity="0.15" stroke="#2563EB" stroke-width="1" stroke-opacity="0.6"/>
    <text x="849.1" y="196.7" fill="#4A9EE5" font-size="9" font-family="Inter,sans-serif" font-weight="600" text-anchor="middle" dominant-baseline="central" opacity="0.8">CT</text>
    <path id="DC" d="M779.1,255.4L780.4,258.7L782.5,256.3L780.4,254.0Z" fill="#4A9EE5" fill-opacity="0.15" stroke="#2563EB" stroke-width="1" stroke-opacity="0.6"/>
    <text x="780.6" y="255.7" fill="#4A9EE5" font-size="9" font-family="Inter,sans-serif" font-weight="600" text-anchor="middle" dominant-baseline="central" opacity="0.8">DC</text>
    <path id="DE" d="M800.8,237.2L802.3,266.2L812.8,266.5L812.1,258.5L806.8,235.3L803.5,234.7Z" fill="#4A9EE5" fill-opacity="0.15" stroke="#2563EB" stroke-width="1" stroke-opacity="0.6"/>
    <text x="806.3" y="247.1" fill="#4A9EE5" font-size="9" font-family="Inter,sans-serif" font-weight="600" text-anchor="middle" dominant-baseline="central" opacity="0.8">DE</text>
    <path id="FL" d="M608.0,441.6L609.9,455.1L714.7,574.1L724.1,572.4L727.2,568.1L729.8,559.9L731.6,540.8L731.7,535.5L730.7,530.3L723.7,497.0L708.7,445.2L700.5,442.4L650.8,438.4L608.5,438.5Z" fill="#68D391" fill-opacity="0.15" stroke="#16A34A" stroke-width="1" stroke-opacity="0.6"/>
    <text x="684.5" y="494.4" fill="#68D391" font-size="9" font-family="Inter,sans-serif" font-weight="600" text-anchor="middle" dominant-baseline="central" opacity="0.8">FL</text>
    <path id="GA" d="M641.0,346.5L649.0,432.1L650.8,438.4L653.0,445.1L696.9,453.3L698.9,453.2L708.7,445.2L717.8,414.6L707.9,392.1L681.6,346.1Z" fill="#68D391" fill-opacity="0.15" stroke="#16A34A" stroke-width="1" stroke-opacity="0.6"/>
    <text x="684.2" y="402.6" fill="#68D391" font-size="9" font-family="Inter,sans-serif" font-weight="600" text-anchor="middle" dominant-baseline="central" opacity="0.8">GA</text>
    <path id="IA" d="M461.6,168.3L473.8,214.2L475.7,217.2L546.4,222.0L551.2,215.3L563.9,194.1L566.6,189.0L567.2,184.6L566.7,181.7L549.7,150.0L464.5,150.0L462.4,150.5Z" fill="#F59E0B" fill-opacity="0.15" stroke="#D97706" stroke-width="1" stroke-opacity="0.6"/>
    <text x="519.3" y="185.5" fill="#F59E0B" font-size="9" font-family="Inter,sans-serif" font-weight="600" text-anchor="middle" dominant-baseline="central" opacity="0.8">IA</text>
    <path id="ID" d="M126.2,129.4L129.7,184.6L178.3,184.7L208.9,184.7L227.0,184.6L227.0,127.5L145.7,23.1L129.6,23.1Z" fill="#E53E3E" fill-opacity="0.15" stroke="#B91C1C" stroke-width="1" stroke-opacity="0.6"/>
    <text x="166.7" y="104.3" fill="#E53E3E" font-size="9" font-family="Inter,sans-serif" font-weight="600" text-anchor="middle" dominant-baseline="central" opacity="0.8">ID</text>
    <path id="IL" d="M545.0,225.3L545.2,230.0L547.2,237.1L563.7,271.9L581.0,300.1L583.6,300.4L593.1,298.3L595.2,296.5L601.0,288.9L610.2,258.9L609.8,191.3L605.2,173.2L559.1,172.8L546.7,217.8Z" fill="#F59E0B" fill-opacity="0.15" stroke="#D97706" stroke-width="1" stroke-opacity="0.6"/>
    <text x="577.1" y="244.3" fill="#F59E0B" font-size="9" font-family="Inter,sans-serif" font-weight="600" text-anchor="middle" dominant-baseline="central" opacity="0.8">IL</text>
    <path id="IN" d="M601.1,280.0L601.6,281.5L616.2,281.8L633.9,277.9L635.8,276.4L653.9,258.8L654.1,219.2L654.0,190.2L621.2,190.2L609.8,191.3Z" fill="#F59E0B" fill-opacity="0.15" stroke="#D97706" stroke-width="1" stroke-opacity="0.6"/>
    <text x="624.5" y="254.7" fill="#F59E0B" font-size="9" font-family="Inter,sans-serif" font-weight="600" text-anchor="middle" dominant-baseline="central" opacity="0.8">IN</text>
    <path id="KS" d="M373.4,230.7L373.5,300.1L494.4,300.0L494.5,250.2L490.0,234.7L483.2,230.7Z" fill="#F59E0B" fill-opacity="0.15" stroke="#D97706" stroke-width="1" stroke-opacity="0.6"/>
    <text x="447.4" y="251.9" fill="#F59E0B" font-size="9" font-family="Inter,sans-serif" font-weight="600" text-anchor="middle" dominant-baseline="central" opacity="0.8">KS</text>
    <path id="KY" d="M579.0,311.6L601.1,311.6L672.2,309.6L681.2,305.9L685.4,302.5L700.1,287.6L690.0,267.1L685.2,259.4L660.0,251.5L653.8,251.5L603.1,279.4L585.3,295.1L582.8,299.1Z" fill="#68D391" fill-opacity="0.15" stroke="#16A34A" stroke-width="1" stroke-opacity="0.6"/>
    <text x="641.1" y="282.8" fill="#68D391" font-size="9" font-family="Inter,sans-serif" font-weight="600" text-anchor="middle" dominant-baseline="central" opacity="0.8">KY</text>
    <path id="LA" d="M503.7,415.5L505.6,466.5L507.0,468.7L556.5,482.6L583.1,484.4L585.7,480.5L581.1,464.3L573.6,438.5L552.0,394.9L550.5,392.3L510.8,391.9L503.7,391.9Z" fill="#68D391" fill-opacity="0.15" stroke="#16A34A" stroke-width="1" stroke-opacity="0.6"/>
    <text x="548.8" y="453.2" fill="#68D391" font-size="9" font-family="Inter,sans-serif" font-weight="600" text-anchor="middle" dominant-baseline="central" opacity="0.8">LA</text>
    <path id="MA" d="M837.8,182.6L838.2,183.5L876.7,196.2L887.0,195.0L894.8,192.2L895.9,189.0L881.6,164.5L880.0,164.1L841.8,167.4Z" fill="#4A9EE5" fill-opacity="0.15" stroke="#2563EB" stroke-width="1" stroke-opacity="0.6"/>
    <text x="874.9" y="182.3" fill="#4A9EE5" font-size="9" font-family="Inter,sans-serif" font-weight="600" text-anchor="middle" dominant-baseline="central" opacity="0.8">MA</text>
    <path id="MD" d="M740.5,249.1L777.7,268.6L791.4,275.6L796.6,278.0L799.2,279.0L809.6,276.2L812.8,266.5L800.8,237.2L740.7,237.2Z" fill="#4A9EE5" fill-opacity="0.15" stroke="#2563EB" stroke-width="1" stroke-opacity="0.6"/>
    <text x="783.1" y="258.0" fill="#4A9EE5" font-size="9" font-family="Inter,sans-serif" font-weight="600" text-anchor="middle" dominant-baseline="central" opacity="0.8">MD</text>
    <path id="ME" d="M877.3,108.4L879.2,153.6L881.5,158.6L883.5,160.2L940.7,123.6L944.1,119.9L930.9,67.7L928.2,64.7L923.7,61.0L907.5,58.6L895.0,76.3Z" fill="#4A9EE5" fill-opacity="0.15" stroke="#2563EB" stroke-width="1" stroke-opacity="0.6"/>
    <text x="909.7" y="116.2" fill="#4A9EE5" font-size="9" font-family="Inter,sans-serif" font-weight="600" text-anchor="middle" dominant-baseline="central" opacity="0.8">ME</text>
    <path id="MI" d="M562.7,79.2L621.2,190.2L654.0,191.7L676.0,190.8L691.2,170.4L692.9,162.1L689.2,141.9L675.6,92.6L673.9,90.2L665.0,80.1L593.1,42.2L582.9,47.6Z" fill="#F59E0B" fill-opacity="0.15" stroke="#D97706" stroke-width="1" stroke-opacity="0.6"/>
    <text x="637.2" y="108.6" fill="#F59E0B" font-size="9" font-family="Inter,sans-serif" font-weight="600" text-anchor="middle" dominant-baseline="central" opacity="0.8">MI</text>
    <path id="MN" d="M451.9,23.1L457.9,101.4L464.5,150.0L549.7,150.0L575.7,45.9L488.9,14.5L485.6,14.2Z" fill="#F59E0B" fill-opacity="0.15" stroke="#D97706" stroke-width="1" stroke-opacity="0.6"/>
    <text x="518.2" y="69.4" fill="#F59E0B" font-size="9" font-family="Inter,sans-serif" font-weight="600" text-anchor="middle" dominant-baseline="central" opacity="0.8">MN</text>
    <path id="MO" d="M475.7,217.2L494.4,311.5L563.4,323.1L573.9,323.1L582.2,309.7L583.6,300.4L567.7,257.4L546.4,222.0L541.3,216.6Z" fill="#F59E0B" fill-opacity="0.15" stroke="#D97706" stroke-width="1" stroke-opacity="0.6"/>
    <text x="545.3" y="267.1" fill="#F59E0B" font-size="9" font-family="Inter,sans-serif" font-weight="600" text-anchor="middle" dominant-baseline="central" opacity="0.8">MO</text>
    <path id="MS" d="M542.9,438.5L577.3,457.3L593.8,454.1L595.6,453.1L600.4,348.7L598.7,346.3L564.4,346.3L554.0,366.1L549.5,379.4L542.9,432.3Z" fill="#68D391" fill-opacity="0.15" stroke="#16A34A" stroke-width="1" stroke-opacity="0.6"/>
    <text x="565.5" y="401.0" fill="#68D391" font-size="9" font-family="Inter,sans-serif" font-weight="600" text-anchor="middle" dominant-baseline="central" opacity="0.8">MS</text>
    <path id="MT" d="M145.7,46.7L151.0,59.5L170.1,102.4L195.2,128.1L197.1,129.4L227.0,127.5L341.0,115.5L341.0,49.4L340.9,23.1L145.7,23.1Z" fill="#E53E3E" fill-opacity="0.15" stroke="#B91C1C" stroke-width="1" stroke-opacity="0.6"/>
    <text x="207.6" y="93.3" fill="#E53E3E" font-size="9" font-family="Inter,sans-serif" font-weight="600" text-anchor="middle" dominant-baseline="central" opacity="0.8">MT</text>
    <path id="NC" d="M661.9,346.4L755.9,372.7L765.2,372.8L789.3,354.0L800.9,332.7L801.9,330.1L801.3,319.6L799.4,310.4L704.9,309.5L670.8,333.2L666.8,336.6L662.4,340.9Z" fill="#68D391" fill-opacity="0.15" stroke="#16A34A" stroke-width="1" stroke-opacity="0.6"/>
    <text x="741.4" y="334.9" fill="#68D391" font-size="9" font-family="Inter,sans-serif" font-weight="600" text-anchor="middle" dominant-baseline="central" opacity="0.8">NC</text>
    <path id="ND" d="M340.9,93.6L462.7,93.8L462.1,84.6L457.9,55.2L454.0,30.4L451.9,23.1L340.9,23.1Z" fill="#F59E0B" fill-opacity="0.15" stroke="#D97706" stroke-width="1" stroke-opacity="0.6"/>
    <text x="435.1" y="56.3" fill="#F59E0B" font-size="9" font-family="Inter,sans-serif" font-weight="600" text-anchor="middle" dominant-baseline="central" opacity="0.8">ND</text>
    <path id="NE" d="M340.8,207.6L373.4,230.7L483.2,230.7L469.8,185.2L464.6,173.3L460.6,169.4L452.0,165.1L431.2,161.6L352.7,161.5L340.8,161.5Z" fill="#F59E0B" fill-opacity="0.15" stroke="#D97706" stroke-width="1" stroke-opacity="0.6"/>
    <text x="434.5" y="188.5" fill="#F59E0B" font-size="9" font-family="Inter,sans-serif" font-weight="600" text-anchor="middle" dominant-baseline="central" opacity="0.8">NE</text>
    <path id="NH" d="M853.5,166.0L854.9,167.8L873.8,168.5L881.6,164.5L883.5,160.2L877.3,108.4L872.8,109.1L861.8,131.0L856.2,148.3L853.7,162.6Z" fill="#4A9EE5" fill-opacity="0.15" stroke="#2563EB" stroke-width="1" stroke-opacity="0.6"/>
    <text x="869.2" y="141.9" fill="#4A9EE5" font-size="9" font-family="Inter,sans-serif" font-weight="600" text-anchor="middle" dominant-baseline="central" opacity="0.8">NH</text>
    <path id="NJ" d="M804.4,239.3L804.9,243.2L816.9,254.0L823.1,245.5L828.2,236.3L830.2,223.9L831.4,207.7L818.5,199.4L816.4,201.0L811.4,208.4Z" fill="#4A9EE5" fill-opacity="0.15" stroke="#2563EB" stroke-width="1" stroke-opacity="0.6"/>
    <text x="816.9" y="225.1" fill="#4A9EE5" font-size="9" font-family="Inter,sans-serif" font-weight="600" text-anchor="middle" dominant-baseline="central" opacity="0.8">NJ</text>
    <path id="NM" d="M259.6,430.8L273.2,430.8L356.9,415.4L357.9,311.5L357.9,300.0L259.6,300.0Z" fill="#FB923C" fill-opacity="0.15" stroke="#EA580C" stroke-width="1" stroke-opacity="0.6"/>
    <text x="312.4" y="360.9" fill="#FB923C" font-size="9" font-family="Inter,sans-serif" font-weight="600" text-anchor="middle" dominant-baseline="central" opacity="0.8">NM</text>
    <path id="NV" d="M81.3,253.9L168.7,346.1L178.2,318.6L178.3,184.7L129.7,184.6L81.3,184.7Z" fill="#E53E3E" fill-opacity="0.15" stroke="#B91C1C" stroke-width="1" stroke-opacity="0.6"/>
    <text x="143.7" y="279.7" fill="#E53E3E" font-size="9" font-family="Inter,sans-serif" font-weight="600" text-anchor="middle" dominant-baseline="central" opacity="0.8">NV</text>
    <path id="NY" d="M736.1,184.6L830.9,218.2L836.9,217.3L842.2,216.3L854.8,211.3L860.7,207.9L840.5,115.1L816.4,115.0L809.0,118.9L747.3,155.5L736.1,178.4Z" fill="#4A9EE5" fill-opacity="0.15" stroke="#2563EB" stroke-width="1" stroke-opacity="0.6"/>
    <text x="811.4" y="170.5" fill="#4A9EE5" font-size="9" font-family="Inter,sans-serif" font-weight="600" text-anchor="middle" dominant-baseline="central" opacity="0.8">NY</text>
    <path id="OH" d="M653.8,251.5L663.6,258.3L672.3,262.3L690.0,267.1L694.3,266.6L718.7,237.4L722.4,223.4L723.8,216.1L723.8,185.1L654.0,191.7Z" fill="#F59E0B" fill-opacity="0.15" stroke="#D97706" stroke-width="1" stroke-opacity="0.6"/>
    <text x="694.6" y="232.5" fill="#F59E0B" font-size="9" font-family="Inter,sans-serif" font-weight="600" text-anchor="middle" dominant-baseline="central" opacity="0.8">OH</text>
    <path id="OK" d="M357.9,311.5L406.8,356.2L411.7,360.4L420.0,364.3L441.4,372.7L452.8,375.3L466.2,376.5L496.5,377.6L497.4,337.0L494.4,300.0L357.9,300.0Z" fill="#FB923C" fill-opacity="0.15" stroke="#EA580C" stroke-width="1" stroke-opacity="0.6"/>
    <text x="442.7" y="355.6" fill="#FB923C" font-size="9" font-family="Inter,sans-serif" font-weight="600" text-anchor="middle" dominant-baseline="central" opacity="0.8">OK</text>
    <path id="OR" d="M7.3,165.3L10.5,181.9L12.8,184.6L102.5,184.9L129.7,184.6L138.9,101.2L137.6,98.0L131.5,92.5L23.7,86.3L17.2,89.7L16.4,93.6Z" fill="#E53E3E" fill-opacity="0.15" stroke="#B91C1C" stroke-width="1" stroke-opacity="0.6"/>
    <text x="66.7" y="122.9" fill="#E53E3E" font-size="9" font-family="Inter,sans-serif" font-weight="600" text-anchor="middle" dominant-baseline="central" opacity="0.8">OR</text>
    <path id="PA" d="M723.8,237.2L800.8,237.2L806.8,235.3L811.2,233.4L816.4,227.8L817.2,225.8L818.5,199.4L817.8,197.7L812.7,190.3L810.7,187.6L807.7,184.6L736.1,178.4L723.8,185.1Z" fill="#4A9EE5" fill-opacity="0.15" stroke="#2563EB" stroke-width="1" stroke-opacity="0.6"/>
    <text x="787.3" y="206.8" fill="#4A9EE5" font-size="9" font-family="Inter,sans-serif" font-weight="600" text-anchor="middle" dominant-baseline="central" opacity="0.8">PA</text>
    <path id="RI" d="M864.7,200.3L870.8,199.1L876.7,196.2L875.4,192.1L872.4,184.2L870.0,184.2L865.6,184.5Z" fill="#4A9EE5" fill-opacity="0.15" stroke="#2563EB" stroke-width="1" stroke-opacity="0.6"/>
    <text x="871.5" y="191.9" fill="#4A9EE5" font-size="9" font-family="Inter,sans-serif" font-weight="600" text-anchor="middle" dominant-baseline="central" opacity="0.8">RI</text>
    <path id="SC" d="M677.9,353.5L714.1,412.6L717.8,414.6L742.7,392.1L745.4,388.3L755.9,372.7L737.5,350.7L715.2,342.7L695.2,341.6L690.7,342.5L681.6,346.1L678.1,351.1Z" fill="#68D391" fill-opacity="0.15" stroke="#16A34A" stroke-width="1" stroke-opacity="0.6"/>
    <text x="713.0" y="376.2" fill="#68D391" font-size="9" font-family="Inter,sans-serif" font-weight="600" text-anchor="middle" dominant-baseline="central" opacity="0.8">SC</text>
    <path id="SD" d="M340.7,115.5L340.8,161.5L464.6,173.3L464.8,158.7L464.5,108.5L462.7,93.8L340.9,93.6Z" fill="#F59E0B" fill-opacity="0.15" stroke="#D97706" stroke-width="1" stroke-opacity="0.6"/>
    <text x="430.3" y="143.9" fill="#F59E0B" font-size="9" font-family="Inter,sans-serif" font-weight="600" text-anchor="middle" dominant-baseline="central" opacity="0.8">SD</text>
    <path id="TN" d="M564.4,346.3L641.0,346.5L661.9,346.4L699.1,320.3L704.2,314.9L704.9,309.5L600.9,307.5L577.0,311.6L567.4,336.0Z" fill="#68D391" fill-opacity="0.15" stroke="#16A34A" stroke-width="1" stroke-opacity="0.6"/>
    <text x="631.5" y="324.6" fill="#68D391" font-size="9" font-family="Inter,sans-serif" font-weight="600" text-anchor="middle" dominant-baseline="central" opacity="0.8">TN</text>
    <path id="TX" d="M298.7,417.7L333.4,469.9L339.3,475.8L422.6,544.3L428.4,548.4L436.1,552.5L447.1,556.4L452.0,554.0L507.0,468.7L509.4,458.2L512.1,439.9L511.8,435.0L503.7,379.6L406.8,311.5L357.3,311.5L299.1,415.4Z" fill="#FB923C" fill-opacity="0.15" stroke="#EA580C" stroke-width="1" stroke-opacity="0.6"/>
    <text x="427.5" y="449.5" fill="#FB923C" font-size="9" font-family="Inter,sans-serif" font-weight="600" text-anchor="middle" dominant-baseline="central" opacity="0.8">TX</text>
    <path id="UT" d="M178.2,300.0L259.6,300.0L259.6,273.1L259.6,207.7L227.0,184.6L178.3,184.7Z" fill="#E53E3E" fill-opacity="0.15" stroke="#B91C1C" stroke-width="1" stroke-opacity="0.6"/>
    <text x="230.2" y="237.4" fill="#E53E3E" font-size="9" font-family="Inter,sans-serif" font-weight="600" text-anchor="middle" dominant-baseline="central" opacity="0.8">UT</text>
    <path id="VA" d="M672.4,309.2L727.4,310.5L740.2,310.6L799.4,310.4L809.6,276.2L771.8,246.8L759.1,243.1L700.1,287.6Z" fill="#68D391" fill-opacity="0.15" stroke="#16A34A" stroke-width="1" stroke-opacity="0.6"/>
    <text x="757.0" y="281.5" fill="#68D391" font-size="9" font-family="Inter,sans-serif" font-weight="600" text-anchor="middle" dominant-baseline="central" opacity="0.8">VA</text>
    <path id="VT" d="M839.0,137.5L839.5,145.7L841.8,167.4L854.9,167.8L869.9,124.9L870.6,117.4L870.4,115.1L840.5,115.1L839.8,124.2Z" fill="#4A9EE5" fill-opacity="0.15" stroke="#2563EB" stroke-width="1" stroke-opacity="0.6"/>
    <text x="853.3" y="138.6" fill="#4A9EE5" font-size="9" font-family="Inter,sans-serif" font-weight="600" text-anchor="middle" dominant-baseline="central" opacity="0.8">VT</text>
    <path id="WA" d="M4.8,41.9L6.1,48.7L15.2,84.7L36.4,100.2L44.8,102.7L62.1,101.4L131.5,92.5L131.4,88.4L129.6,23.1L36.5,23.1L6.6,37.4Z" fill="#E53E3E" fill-opacity="0.15" stroke="#B91C1C" stroke-width="1" stroke-opacity="0.6"/>
    <text x="46.7" y="61.6" fill="#E53E3E" font-size="9" font-family="Inter,sans-serif" font-weight="600" text-anchor="middle" dominant-baseline="central" opacity="0.8">WA</text>
    <path id="WI" d="M522.5,102.1L523.8,121.2L552.1,167.3L559.1,172.8L589.2,173.2L605.2,173.2L617.5,113.3L617.8,110.3L600.3,94.1L555.9,70.2L535.5,75.0L532.2,76.9L522.8,98.8Z" fill="#F59E0B" fill-opacity="0.15" stroke="#D97706" stroke-width="1" stroke-opacity="0.6"/>
    <text x="572.1" y="117.9" fill="#F59E0B" font-size="9" font-family="Inter,sans-serif" font-weight="600" text-anchor="middle" dominant-baseline="central" opacity="0.8">WI</text>
    <path id="WV" d="M689.5,274.1L691.5,278.5L694.9,284.6L702.1,293.4L704.9,295.3L706.9,295.2L712.3,294.6L716.5,293.3L724.5,290.3L727.3,288.2L767.5,250.8L769.3,246.4L767.4,240.0L723.8,216.1L721.4,217.3L690.0,267.1Z" fill="#68D391" fill-opacity="0.15" stroke="#16A34A" stroke-width="1" stroke-opacity="0.6"/>
    <text x="724.9" y="258.9" fill="#68D391" font-size="9" font-family="Inter,sans-serif" font-weight="600" text-anchor="middle" dominant-baseline="central" opacity="0.8">WV</text>
    <path id="WY" d="M226.9,115.3L227.0,207.7L313.6,207.7L340.8,207.6L340.8,161.5L340.7,115.5L310.5,115.3Z" fill="#E53E3E" fill-opacity="0.15" stroke="#B91C1C" stroke-width="1" stroke-opacity="0.6"/>
    <text x="277.7" y="160.7" fill="#E53E3E" font-size="9" font-family="Inter,sans-serif" font-weight="600" text-anchor="middle" dominant-baseline="central" opacity="0.8">WY</text>
  </g>
</svg>