<svg width="1312" height="832" viewBox="0 0 1312 832" fill="none" xmlns="http://www.w3.org/2000/svg">
<rect width="1312" height="160" rx="24" fill="#232324"/>
<rect x="16" y="16" width="128" height="128" rx="15" fill="#E3CCF5"/>
<rect x="160" y="16" width="128" height="128" rx="15" fill="#C799EA"/>
<rect x="304" y="16" width="128" height="128" rx="15" fill="#AA66E0"/>
<rect x="448" y="16" width="128" height="128" rx="15" fill="#8E33D5"/>
<rect x="592" y="16" width="128" height="128" rx="15" fill="#7200CB"/>
<rect x="736" y="16" width="128" height="128" rx="15" fill="#5B00A2"/>
<rect x="880" y="16" width="128" height="128" rx="15" fill="#44007A"/>
<rect x="1024" y="16" width="128" height="128" rx="15" fill="#2E0051"/>
<rect x="1168" y="16" width="128" height="128" rx="15" fill="#170029"/>
<rect y="224" width="1312" height="160" rx="24" fill="#232324"/>
<rect x="16" y="240" width="128" height="128" rx="15" fill="#FCCCF6"/>
<rect x="160" y="240" width="128" height="128" rx="15" fill="#F999ED"/>
<rect x="304" y="240" width="128" height="128" rx="15" fill="#F666E4"/>
<rect x="448" y="240" width="128" height="128" rx="15" fill="#F333DB"/>
<rect x="592" y="240" width="128" height="128" rx="15" fill="#F000D2"/>
<rect x="736" y="240" width="128" height="128" rx="15" fill="#C000A8"/>
<rect x="880" y="240" width="128" height="128" rx="15" fill="#90007E"/>
<rect x="1024" y="240" width="128" height="128" rx="15" fill="#600054"/>
<rect x="1168" y="240" width="128" height="128" rx="15" fill="#30002A"/>
<rect y="448" width="1312" height="160" rx="24" fill="#232324"/>
<rect x="16" y="464" width="128" height="128" rx="15" fill="#D3F7F4"/>
<rect x="160" y="464" width="128" height="128" rx="15" fill="#A6EFE8"/>
<rect x="304" y="464" width="128" height="128" rx="15" fill="#7AE6DD"/>
<rect x="448" y="464" width="128" height="128" rx="15" fill="#4DDED1"/>
<rect x="592" y="464" width="128" height="128" rx="15" fill="#21D6C6"/>
<rect x="736" y="464" width="128" height="128" rx="15" fill="#1AAB9E"/>
<rect x="880" y="464" width="128" height="128" rx="15" fill="#148077"/>
<rect x="1024" y="464" width="128" height="128" rx="15" fill="#0D564F"/>
<rect x="1168" y="464" width="128" height="128" rx="15" fill="#072B28"/>
<rect y="672" width="1312" height="160" rx="24" fill="#232324"/>
<rect x="16" y="688" width="128" height="128" rx="15" fill="#F5DCDC"/>
<rect x="160" y="688" width="128" height="128" rx="15" fill="#EBB9B9"/>
<rect x="304" y="688" width="128" height="128" rx="15" fill="#E29597"/>
<rect x="448" y="688" width="128" height="128" rx="15" fill="#D87274"/>
<rect x="592" y="688" width="128" height="128" rx="15" fill="#CE4F51"/>
<rect x="736" y="688" width="128" height="128" rx="15" fill="#A53F41"/>
<rect x="880" y="688" width="128" height="128" rx="15" fill="#7C2F31"/>
<rect x="1024" y="688" width="128" height="128" rx="15" fill="#522020"/>
<rect x="1168" y="688" width="128" height="128" rx="15" fill="#291010"/>
</svg>
