<svg xmlns="http://www.w3.org/2000/svg" viewBox="0 0 520 120" fill="none">
  <g transform="translate(60,60) scale(0.48)" stroke="currentColor" stroke-width="7" stroke-linecap="round" stroke-linejoin="round">
    <line x1="0" y1="0" x2="0" y2="-108"/>
    <line x1="0" y1="0" x2="65" y2="-87"/>
    <line x1="0" y1="0" x2="103" y2="-33"/>
    <line x1="0" y1="0" x2="95" y2="50"/>
    <line x1="0" y1="0" x2="40" y2="100"/>
    <line x1="0" y1="0" x2="-40" y2="100"/>
    <line x1="0" y1="0" x2="-95" y2="50"/>
    <line x1="0" y1="0" x2="-103" y2="-33"/>
    <line x1="0" y1="0" x2="-65" y2="-87"/>
    <path d="M 0,-108 Q 38,-105 65,-87 Q 92,-65 103,-33 Q 108,10 95,50 Q 78,82 40,100 Q 5,110 -40,100 Q -78,82 -95,50 Q -108,10 -103,-33 Q -92,-65 -65,-87 Q -38,-105 0,-108 Z"/>
    <path d="M 0,-70 Q 24,-68 42,-56 Q 60,-42 67,-21 Q 70,7 62,32 Q 51,53 26,65 Q 3,72 -26,65 Q -51,53 -62,32 Q -70,7 -67,-21 Q -60,-42 -42,-56 Q -24,-68 0,-70 Z"/>
    <path d="M 0,-38 Q 13,-37 23,-30 Q 33,-23 36,-11 Q 38,4 34,18 Q 28,29 14,35 Q 2,39 -14,35 Q -28,29 -34,18 Q -38,4 -36,-11 Q -33,-23 -23,-30 Q -13,-37 0,-38 Z"/>
  </g>
  <text x="130" y="78" font-family="Inter, -apple-system, sans-serif" font-size="64" font-weight="600" letter-spacing="-1" fill="currentColor">SomeAI</text>
</svg>